<svg xmlns="http://www.w3.org/2000/svg" xmlns:xlink="http://www.w3.org/1999/xlink" width="750" zoomAndPan="magnify" viewBox="0 0 562.5 374.999991" height="500" preserveAspectRatio="xMidYMid meet" version="1.0"><defs><clipPath id="27eec484c5"><path d="M 0 0.167969 L 562 0.167969 L 562 374.832031 L 0 374.832031 Z M 0 0.167969 " clip-rule="nonzero"/></clipPath><clipPath id="ee5c5a4666"><path d="M 156.4375 62.855469 L 406.1875 62.855469 L 406.1875 312.605469 L 156.4375 312.605469 Z M 156.4375 62.855469 " clip-rule="nonzero"/></clipPath></defs><g clip-path="url(#27eec484c5)"><path fill="#ffffff" d="M 0 0.167969 L 562.5 0.167969 L 562.5 382.667969 L 0 382.667969 Z M 0 0.167969 " fill-opacity="1" fill-rule="nonzero"/><path fill="#ffffff" d="M 0 0.167969 L 562.5 0.167969 L 562.5 375.167969 L 0 375.167969 Z M 0 0.167969 " fill-opacity="1" fill-rule="nonzero"/><path fill="#d9d9d9" d="M 0 0.167969 L 562.5 0.167969 L 562.5 375.167969 L 0 375.167969 Z M 0 0.167969 " fill-opacity="1" fill-rule="nonzero"/></g><g clip-path="url(#ee5c5a4666)"><path fill="#ffffff" d="M 281.3125 312.605469 C 350.28125 312.605469 406.1875 256.695312 406.1875 187.730469 C 406.1875 118.761719 350.28125 62.855469 281.3125 62.855469 C 212.347656 62.855469 156.4375 118.761719 156.4375 187.730469 C 156.4375 256.695312 212.347656 312.605469 281.3125 312.605469 Z M 269.566406 127.789062 C 261.996094 127.789062 255.078125 132.066406 251.695312 138.835938 L 249.066406 144.089844 C 247.941406 146.34375 245.632812 147.769531 243.109375 147.769531 L 234.695312 147.769531 C 223.660156 147.769531 214.714844 156.714844 214.714844 167.75 L 214.714844 227.691406 C 214.714844 238.726562 223.660156 247.671875 234.695312 247.671875 L 327.933594 247.671875 C 338.96875 247.671875 347.914062 238.726562 347.914062 227.691406 L 347.914062 167.75 C 347.914062 156.714844 338.96875 147.769531 327.933594 147.769531 L 319.515625 147.769531 C 316.992188 147.769531 314.6875 146.34375 313.558594 144.089844 L 310.933594 138.835938 C 307.546875 132.066406 300.628906 127.789062 293.0625 127.789062 Z M 281.3125 174.410156 C 270.277344 174.410156 261.332031 183.355469 261.332031 194.390625 C 261.332031 205.425781 270.277344 214.371094 281.3125 214.371094 C 292.347656 214.371094 301.292969 205.425781 301.292969 194.390625 C 301.292969 183.355469 292.347656 174.410156 281.3125 174.410156 Z M 248.011719 194.390625 C 248.011719 176 262.921875 161.089844 281.3125 161.089844 C 299.703125 161.089844 314.613281 176 314.613281 194.390625 C 314.613281 212.78125 299.703125 227.691406 281.3125 227.691406 C 262.921875 227.691406 248.011719 212.78125 248.011719 194.390625 Z M 248.011719 194.390625 " fill-opacity="1" fill-rule="evenodd"/></g></svg>